<svg xmlns="http://www.w3.org/2000/svg" width="14" height="14" viewBox="0 0 14 14"><path fill="currentColor" class="a" d="M-1942.276-157a.724.724,0,0,1-.724-.724.724.724,0,0,1,.724-.724h12.552a.724.724,0,0,1,.724.724.724.724,0,0,1-.724.724Zm2.219-3.757-2.731-2.731a.72.72,0,0,1-.179-.3h0l0-.016v0l0-.015v0l0-.014v0l0-.014v0l0-.016h0a.731.731,0,0,1,0-.256v0l0-.015v0l0-.014v0l0-.014v0l0-.015v0l0-.016h0a.715.715,0,0,1,.111-.217l.005-.007,0-.006.009-.011v0a.71.71,0,0,1,.058-.063l2.722-2.722a.724.724,0,0,1,1.024,0,.724.724,0,0,1,0,1.024l-1.495,1.495h10.8A.724.724,0,0,1-1929-164a.724.724,0,0,1-.724.724h-10.8l1.495,1.495a.724.724,0,0,1,0,1.024.723.723,0,0,1-.512.212A.722.722,0,0,1-1940.057-160.757Zm-2.219-8.795a.724.724,0,0,1-.724-.724.724.724,0,0,1,.724-.724h12.552a.724.724,0,0,1,.724.724.724.724,0,0,1-.724.724Z" transform="translate(1943 171)" /></svg>