<svg xmlns="http://www.w3.org/2000/svg" width="14.002" height="14" viewBox="0 0 14.002 14"><defs><style>.a{fill:#d4d6d9;opacity:0.6;}</style></defs><path class="a" d="M20373.7,12719a.7.7,0,0,1-.7-.7v-.42a7.2,7.2,0,0,1,.383-3.27,3.462,3.462,0,0,1,1.527-1.529,7.2,7.2,0,0,1,3.27-.383h3.641a7.2,7.2,0,0,1,3.27.383,3.467,3.467,0,0,1,1.529,1.529,7.2,7.2,0,0,1,.383,3.27v.42a.7.7,0,0,1-.7.7Zm1.848-4.672a2.086,2.086,0,0,0-.918.918,5.939,5.939,0,0,0-.229,2.355h11.2a5.927,5.927,0,0,0-.23-2.355,2.081,2.081,0,0,0-.916-.918,6.939,6.939,0,0,0-2.635-.228h-3.641A6.927,6.927,0,0,0,20375.547,12714.33Zm1.3-6.18a3.151,3.151,0,1,1,3.15,3.15A3.152,3.152,0,0,1,20376.85,12708.15Zm1.4,0a1.75,1.75,0,1,0,1.75-1.75A1.752,1.752,0,0,0,20378.25,12708.15Z" transform="translate(-20373 -12705.002)"/></svg>