<svg xmlns="http://www.w3.org/2000/svg" width="14" height="14" viewBox="0 0 14 14"><defs><style>.a{opacity:0.6;}.b{fill:none;}.c{fill:#d4d6d9;}</style></defs><g class="a" transform="translate(20287 12701)"><rect class="b" width="14" height="14" transform="translate(-20287 -12701)"/><path class="c" d="M20282.273,12717a1.273,1.273,0,0,1-1.271-1.272V12710a1.272,1.272,0,0,1,1.271-1.271h1.271v-1.911a3.818,3.818,0,1,1,7.637,0v1.911h1.275a1.271,1.271,0,0,1,1.27,1.271v5.728a1.271,1.271,0,0,1-1.27,1.272Zm0-1.272h10.184V12710h-10.184Zm7.635-7v-1.911a2.544,2.544,0,1,0-5.088,0v1.911Zm-3.182,5.09v-1.91a.637.637,0,0,1,1.273,0v1.91a.637.637,0,0,1-1.273,0Z" transform="translate(-40567.363 -25404)"/></g></svg>