<svg xmlns="http://www.w3.org/2000/svg" width="14" height="14" viewBox="0 0 14 14"><defs><style>.a{fill:none;}</style></defs><g transform="translate(18073 -7969)"><rect class="a" width="14" height="14" transform="translate(-18073 7969)"/><path class="b" d="M17915.977-7771.1a.537.537,0,0,1-.539-.54.538.538,0,0,1,.539-.542h7.832v-6.488h-9.729v3.273a.541.541,0,0,1-.541.54.541.541,0,0,1-.543-.54v-7.057a.542.542,0,0,1,.543-.542h10.816a.544.544,0,0,1,.539.542v3.243a.6.6,0,0,1-.023.158.6.6,0,0,1,.023.158v7.03a.356.356,0,0,1-.016.112.372.372,0,0,1,.016.113.542.542,0,0,1-.539.54Zm-1.9-8.65h9.729v-2.164h-9.729Zm-.924,7.962a.542.542,0,0,1,0-.765l3.293-3.325a.542.542,0,0,1,.758-.011l1.395,1.337,1.8-1.8a.542.542,0,0,1,.76-.005l1.211,1.182a.541.541,0,0,1,.01.764.54.54,0,0,1-.764.01l-.828-.809-1.8,1.794a.542.542,0,0,1-.756.008l-1.395-1.336-2.918,2.948a.536.536,0,0,1-.383.16A.546.546,0,0,1,17913.156-7771.793Zm3.895-8.5a.54.54,0,0,1-.539-.541.539.539,0,0,1,.539-.541h5.68a.54.54,0,0,1,.539.541.541.541,0,0,1-.539.541Zm-1.889,0a.544.544,0,0,1-.545-.541.544.544,0,0,1,.545-.54h.268a.54.54,0,0,1,.541.54.54.54,0,0,1-.541.541Z" transform="translate(-35984.945 15753.053)"/></g></svg>